<svg width="34" height="29" viewBox="0 0 34 29" fill="none" xmlns="http://www.w3.org/2000/svg">
<path d="M11.0616 22.713C9.19273 22.713 7.67776 24.1018 7.67776 25.8149C7.67776 27.528 9.19281 28.9168 11.0616 28.9168C12.9305 28.9168 14.4455 27.528 14.4455 25.8149C14.4456 24.1018 12.9305 22.713 11.0616 22.713ZM11.0616 27.5382C10.0234 27.5382 9.18172 26.7667 9.18172 25.8149C9.18172 24.8632 10.0234 24.0917 11.0616 24.0917C12.0999 24.0917 12.9416 24.8632 12.9416 25.8149C12.9416 26.7667 12.0999 27.5382 11.0616 27.5382Z" fill="black"/>
<path d="M25.3494 22.713C23.4805 22.713 21.9655 24.1018 21.9655 25.8149C21.9655 27.528 23.4806 28.9168 25.3494 28.9168C27.2182 28.9168 28.7333 27.528 28.7333 25.8149C28.7333 24.1018 27.2183 22.713 25.3494 22.713ZM25.3494 27.5382C24.3111 27.5382 23.4695 26.7667 23.4695 25.8149C23.4695 24.8632 24.3111 24.0917 25.3494 24.0917C26.3877 24.0917 27.2293 24.8632 27.2293 25.8149C27.2294 26.7667 26.3877 27.5382 25.3494 27.5382Z" fill="black"/>
<path d="M32.982 4.61846C32.8254 4.46165 32.6111 4.36349 32.3804 4.34271L7.90347 4.03252L7.2267 2.13688C6.74992 0.869676 5.45538 0.0141834 3.99315 0H1.47403C1.05871 0 0.722046 0.308605 0.722046 0.689315C0.722046 1.07003 1.05871 1.37863 1.47403 1.37863H3.99315C4.81077 1.39519 5.53073 1.87644 5.79794 2.58495L10.573 15.7853L10.1971 16.578C9.77771 17.5693 9.90365 18.6849 10.5354 19.5765C11.1612 20.4522 12.2139 20.9926 13.3554 21.0241H27.9814C28.3968 21.0241 28.7334 20.7155 28.7334 20.3348C28.7334 19.9541 28.3968 19.6455 27.9814 19.6455H13.3553C12.7107 19.6307 12.1173 19.3198 11.7762 18.8183C11.4388 18.3228 11.3695 17.7125 11.5882 17.1639L11.889 16.5435L27.7182 15.027C29.4569 14.8515 30.8872 13.6922 31.2901 12.1319L33.0949 5.20427C33.1762 5.00478 33.133 4.78042 32.982 4.61846ZM29.8237 11.8217C29.5796 12.8262 28.6493 13.5671 27.5302 13.6484L11.889 15.1304L8.39227 5.41115L31.4404 5.72134L29.8237 11.8217Z" fill="black"/>
</svg>
