<svg width="33" height="29" viewBox="0 0 33 29" fill="none" xmlns="http://www.w3.org/2000/svg">
<path d="M10.3396 22.713C8.47066 22.713 6.95569 24.1018 6.95569 25.8149C6.95569 27.528 8.47073 28.9168 10.3396 28.9168C12.2085 28.9168 13.7234 27.528 13.7234 25.8149C13.7235 24.1018 12.2085 22.713 10.3396 22.713ZM10.3396 27.5382C9.3013 27.5382 8.45965 26.7667 8.45965 25.8149C8.45965 24.8632 9.3013 24.0917 10.3396 24.0917C11.3778 24.0917 12.2195 24.8632 12.2195 25.8149C12.2196 26.7667 11.3778 27.5382 10.3396 27.5382Z" fill="white"/>
<path d="M24.6273 22.713C22.7584 22.713 21.2435 24.1018 21.2435 25.8149C21.2435 27.528 22.7585 28.9168 24.6273 28.9168C26.4962 28.9168 28.0112 27.528 28.0112 25.8149C28.0112 24.1018 26.4963 22.713 24.6273 22.713ZM24.6273 27.5382C23.5891 27.5382 22.7474 26.7667 22.7474 25.8149C22.7474 24.8632 23.5891 24.0917 24.6273 24.0917C25.6656 24.0917 26.5073 24.8632 26.5073 25.8149C26.5073 26.7667 25.6656 27.5382 24.6273 27.5382Z" fill="white"/>
<path d="M32.2599 4.61846C32.1033 4.46165 31.8891 4.36349 31.6584 4.34271L7.18143 4.03252L6.50465 2.13688C6.02787 0.869676 4.73333 0.0141834 3.27111 0H0.751982C0.336661 0 0 0.308605 0 0.689315C0 1.07003 0.336661 1.37863 0.751982 1.37863H3.27111C4.08872 1.39519 4.80868 1.87644 5.07589 2.58495L9.85097 15.7853L9.47501 16.578C9.05566 17.5693 9.1816 18.6849 9.8134 19.5765C10.4391 20.4522 11.4919 20.9926 12.6333 21.0241H27.2594C27.6747 21.0241 28.0114 20.7155 28.0114 20.3348C28.0114 19.9541 27.6747 19.6455 27.2594 19.6455H12.6333C11.9887 19.6307 11.3953 19.3198 11.0541 18.8183C10.7167 18.3228 10.6474 17.7125 10.8661 17.1639L11.167 16.5435L26.9961 15.027C28.7348 14.8515 30.1651 13.6922 30.5681 12.1319L32.3728 5.20427C32.4542 5.00478 32.411 4.78042 32.2599 4.61846ZM29.1017 11.8217C28.8576 12.8262 27.9272 13.5671 26.8082 13.6484L11.167 15.1304L7.67023 5.41115L30.7184 5.72134L29.1017 11.8217Z" fill="white"/>
</svg>
