<svg width="261" height="16" viewBox="0 0 261 16" fill="none" xmlns="http://www.w3.org/2000/svg">
<path d="M16.2375 15V7.68843H9.03215V9.79263H13.3893V9.94141C13.3893 10.3665 13.2689 10.7845 13.028 11.1954C12.8013 11.5922 12.4825 11.9535 12.0716 12.2794C11.6606 12.5911 11.1647 12.8462 10.5837 13.0446C10.0028 13.2288 9.37223 13.3209 8.69208 13.3209C7.78522 13.3209 6.97046 13.1792 6.24781 12.8958C5.52515 12.6124 4.90877 12.2298 4.39866 11.7481C3.90272 11.2663 3.52014 10.7137 3.25091 10.0902C2.98169 9.45256 2.84708 8.78658 2.84708 8.09227V7.85847C2.84708 7.16415 2.9746 6.49817 3.22966 5.86054C3.48471 5.2229 3.8673 4.6632 4.3774 4.18143C4.88751 3.68549 5.51807 3.29582 6.26906 3.01243C7.02006 2.71486 7.89149 2.56608 8.88337 2.56608C9.45016 2.56608 9.99569 2.62984 10.52 2.75737C11.0584 2.8849 11.5614 3.05494 12.029 3.26748C12.5108 3.48003 12.9501 3.72091 13.3468 3.99014C13.7436 4.25936 14.1049 4.54276 14.4308 4.84032L16.0887 3.16121C15.7344 2.77863 15.3093 2.4173 14.8134 2.07723C14.3316 1.73715 13.779 1.43959 13.1555 1.18453C12.5462 0.929479 11.8803 0.724018 11.1576 0.568152C10.4491 0.412284 9.69813 0.334351 8.90463 0.334351C7.60101 0.334351 6.41076 0.539812 5.33386 0.950734C4.27113 1.36166 3.35719 1.92136 2.59202 2.62984C1.82686 3.32416 1.23173 4.13183 0.806638 5.05286C0.381547 5.95973 0.169001 6.91618 0.169001 7.92223V8.17729C0.169001 9.155 0.360292 10.0902 0.742874 10.9829C1.13963 11.8756 1.69933 12.662 2.42198 13.3421C3.14464 14.0223 4.00899 14.5607 5.01504 14.9575C6.03526 15.3542 7.17592 15.5526 8.43703 15.5526C9.64145 15.5526 10.7183 15.3401 11.6677 14.915C12.6313 14.4899 13.4531 13.8806 14.1332 13.0871L14.5371 15H16.2375ZM36.5321 15L28.7529 0.844461H26.5424L18.8908 15H21.6964L23.503 11.493H31.8136L33.684 15H36.5321ZM30.7721 9.55883H24.502L27.5839 3.60755L30.7721 9.55883ZM53.4172 15V12.7895H42.3435V0.844461H39.6867V15H53.4172ZM69.8972 15V12.7895H59.6951V8.83618H67.538V6.68947H59.6951V3.05494H69.8972V0.844461H57.0382V15H69.8972ZM88.6388 15V14.9362C88.2987 14.582 88.072 14.2207 87.9586 13.8523C87.8453 13.4838 87.7815 13.0517 87.7674 12.5557L87.7461 11.3867C87.7461 10.9758 87.6965 10.5932 87.5973 10.239C87.4981 9.87057 87.321 9.55175 87.066 9.28252C86.8251 9.0133 86.485 8.79367 86.0457 8.62363C85.6206 8.43942 85.0609 8.31898 84.3666 8.2623C85.0609 8.13478 85.6348 7.95057 86.0882 7.70968C86.5417 7.4688 86.903 7.19249 87.1722 6.88076C87.4415 6.56902 87.6327 6.22895 87.7461 5.86054C87.8595 5.49213 87.9161 5.11663 87.9161 4.73405C87.9161 4.18143 87.7957 3.67132 87.5548 3.20372C87.3139 2.73612 86.9384 2.3252 86.4283 1.97095C85.9182 1.61671 85.2735 1.3404 84.4942 1.14203C83.729 0.943649 82.815 0.844461 81.7523 0.844461H74.0369V15H76.6937V9.28252H81.7098C82.3758 9.28252 82.9142 9.32503 83.3252 9.41005C83.7502 9.4809 84.0832 9.60134 84.3241 9.77138C84.5792 9.92724 84.7492 10.1327 84.8342 10.3878C84.9334 10.6286 84.9972 10.9262 85.0255 11.2805L85.1105 12.7258C85.153 13.3634 85.2593 13.9018 85.4294 14.3411C85.5994 14.7804 85.8686 15 86.237 15H88.6388ZM85.2381 5.24416C85.2381 5.81094 85.0043 6.2998 84.5367 6.71072C84.0691 7.10747 83.3464 7.30585 82.3687 7.30585H76.6937V3.05494H82.1349C82.7017 3.05494 83.1835 3.11161 83.5802 3.22497C83.977 3.33833 84.2958 3.4942 84.5367 3.69257C84.7775 3.87678 84.9547 4.08932 85.068 4.33021C85.1814 4.57109 85.2381 4.81906 85.2381 5.07412V5.24416ZM105.368 15V12.7895H95.1661V8.83618H103.009V6.68947H95.1661V3.05494H105.368V0.844461H92.5093V15H105.368ZM124.535 0.844461H121.389L116.267 7.41212L110.804 0.844461H107.659L114.8 9.30378V15H117.457V9.34629L124.535 0.844461ZM141.575 15L133.796 0.844461H131.586L123.934 15H126.74L128.546 11.493H136.857L138.727 15H141.575ZM135.815 9.55883H129.545L132.627 3.60755L135.815 9.55883ZM168.536 15L160.757 0.844461H158.547L150.895 15H153.701L155.507 11.493H163.818L165.688 15H168.536ZM162.776 9.55883H156.506L159.588 3.60755L162.776 9.55883ZM185.719 11.0254C185.719 10.3594 185.549 9.79972 185.209 9.34629C184.869 8.89286 184.415 8.51736 183.848 8.21979C183.296 7.90806 182.665 7.66009 181.957 7.47588C181.248 7.27751 180.519 7.11456 179.768 6.98703C179.031 6.84533 178.308 6.71781 177.6 6.60445C176.891 6.49109 176.253 6.35648 175.687 6.20061C175.134 6.03057 174.688 5.82511 174.348 5.58423C174.008 5.34334 173.838 5.03161 173.838 4.64903C173.838 4.35146 173.944 4.07515 174.156 3.8201C174.383 3.55088 174.695 3.32416 175.092 3.13995C175.502 2.94158 175.984 2.78571 176.537 2.67235C177.104 2.559 177.734 2.50232 178.429 2.50232C178.953 2.50232 179.477 2.55191 180.001 2.6511C180.54 2.73612 181.05 2.85656 181.532 3.01243C182.028 3.15412 182.488 3.32416 182.913 3.52254C183.338 3.72091 183.714 3.92637 184.04 4.13892L185.485 2.35353C185.088 2.09848 184.628 1.85051 184.103 1.60962C183.593 1.35457 183.041 1.13494 182.446 0.950734C181.851 0.766528 181.22 0.617745 180.554 0.504388C179.888 0.39103 179.208 0.334351 178.514 0.334351C177.394 0.334351 176.381 0.454793 175.474 0.695679C174.567 0.936564 173.795 1.26247 173.157 1.67339C172.52 2.08431 172.031 2.58025 171.691 3.16121C171.351 3.728 171.181 4.33729 171.181 4.9891C171.181 5.64091 171.351 6.18644 171.691 6.6257C172.031 7.05079 172.477 7.40504 173.03 7.68843C173.582 7.97182 174.213 8.19854 174.922 8.36858C175.644 8.53861 176.374 8.68739 177.111 8.81492C177.848 8.94245 178.57 9.06998 179.279 9.1975C180.001 9.31086 180.639 9.45256 181.192 9.6226C181.744 9.79263 182.191 10.0123 182.531 10.2815C182.871 10.5365 183.041 10.8766 183.041 11.3017C183.041 11.5709 182.949 11.8331 182.764 12.0881C182.594 12.3432 182.325 12.5699 181.957 12.7683C181.603 12.9525 181.149 13.1013 180.596 13.2146C180.044 13.328 179.385 13.3847 178.62 13.3847C177.472 13.3847 176.317 13.2288 175.155 12.9171C174.008 12.6053 172.874 12.1731 171.755 11.6205L170.777 13.7247C171.882 14.249 173.079 14.6812 174.369 15.0213C175.673 15.3755 177.047 15.5526 178.492 15.5526C179.541 15.5526 180.504 15.4463 181.383 15.2338C182.276 15.0213 183.041 14.7237 183.678 14.3411C184.316 13.9444 184.812 13.4697 185.166 12.9171C185.535 12.3503 185.719 11.7197 185.719 11.0254ZM203.676 3.05494V0.844461H188.649V3.05494H194.834V15H197.491V3.05494H203.676ZM221.4 15L213.621 0.844461H211.411L203.759 15H206.565L208.371 11.493H216.682L218.552 15H221.4ZM215.64 9.55883H209.37L212.452 3.60755L215.64 9.55883ZM239.603 15V0.844461H236.946V11.323L236.032 10.3027L227.105 0.844461H224.555V15H227.212V4.5215L228.104 5.52046L237.308 15H239.603ZM260.421 15L252.641 0.844461H250.431L242.779 15H245.585L247.392 11.493H255.702L257.573 15H260.421ZM254.661 9.55883H248.391L251.472 3.60755L254.661 9.55883Z" fill="black"/>
</svg>
