<svg width="261" height="17" viewBox="0 0 261 17" fill="none" xmlns="http://www.w3.org/2000/svg">
  <g style="mix-blend-mode:difference">
  <path d="M16.2375 15.4486V8.13704H9.03215V10.2412H13.3893V10.39C13.3893 10.8151 13.2689 11.2331 13.028 11.644C12.8013 12.0408 12.4825 12.4021 12.0716 12.728C11.6606 13.0398 11.1647 13.2948 10.5837 13.4932C10.0028 13.6774 9.37223 13.7695 8.69208 13.7695C7.78522 13.7695 6.97046 13.6278 6.24781 13.3444C5.52515 13.061 4.90877 12.6784 4.39866 12.1967C3.90272 11.7149 3.52014 11.1623 3.25091 10.5388C2.98169 9.90117 2.84708 9.23519 2.84708 8.54088V8.30707C2.84708 7.61276 2.9746 6.94678 3.22966 6.30915C3.48471 5.67151 3.8673 5.11181 4.3774 4.63004C4.88751 4.1341 5.51807 3.74443 6.26906 3.46103C7.02006 3.16347 7.89149 3.01469 8.88337 3.01469C9.45016 3.01469 9.99569 3.07845 10.52 3.20598C11.0584 3.33351 11.5614 3.50354 12.029 3.71609C12.5108 3.92864 12.9501 4.16952 13.3468 4.43874C13.7436 4.70797 14.1049 4.99136 14.4308 5.28893L16.0887 3.60982C15.7344 3.22723 15.3093 2.86591 14.8134 2.52583C14.3316 2.18576 13.779 1.8882 13.1555 1.63314C12.5462 1.37809 11.8803 1.17263 11.1576 1.01676C10.4491 0.860893 9.69813 0.782959 8.90463 0.782959C7.60101 0.782959 6.41076 0.98842 5.33386 1.39934C4.27113 1.81026 3.35719 2.36997 2.59202 3.07845C1.82686 3.77277 1.23173 4.58044 0.806638 5.50147C0.381547 6.40833 0.169001 7.36479 0.169001 8.37084V8.62589C0.169001 9.6036 0.360292 10.5388 0.742874 11.4315C1.13963 12.3242 1.69933 13.1106 2.42198 13.7908C3.14464 14.4709 4.00899 15.0093 5.01504 15.4061C6.03526 15.8029 7.17592 16.0012 8.43703 16.0012C9.64145 16.0012 10.7183 15.7887 11.6677 15.3636C12.6313 14.9385 13.4531 14.3292 14.1332 13.5357L14.5371 15.4486H16.2375ZM36.5321 15.4486L28.7529 1.29307H26.5424L18.8908 15.4486H21.6964L23.503 11.9416H31.8136L33.684 15.4486H36.5321ZM30.7721 10.0074H24.502L27.5839 4.05616L30.7721 10.0074ZM53.4172 15.4486V13.2381H42.3435V1.29307H39.6867V15.4486H53.4172ZM69.8972 15.4486V13.2381H59.6951V9.28478H67.538V7.13807H59.6951V3.50354H69.8972V1.29307H57.0382V15.4486H69.8972ZM88.6388 15.4486V15.3848C88.2987 15.0306 88.072 14.6693 87.9586 14.3009C87.8453 13.9324 87.7815 13.5003 87.7674 13.0043L87.7461 11.8353C87.7461 11.4244 87.6965 11.0418 87.5973 10.6876C87.4981 10.3192 87.321 10.0004 87.066 9.73113C86.8251 9.46191 86.485 9.24228 86.0457 9.07224C85.6206 8.88803 85.0609 8.76759 84.3666 8.71091C85.0609 8.58338 85.6348 8.39918 86.0882 8.15829C86.5417 7.91741 86.903 7.6411 87.1722 7.32936C87.4415 7.01763 87.6327 6.67756 87.7461 6.30915C87.8595 5.94073 87.9161 5.56524 87.9161 5.18265C87.9161 4.63004 87.7957 4.11993 87.5548 3.65233C87.3139 3.18473 86.9384 2.7738 86.4283 2.41956C85.9182 2.06532 85.2735 1.78901 84.4942 1.59063C83.729 1.39226 82.815 1.29307 81.7523 1.29307H74.0369V15.4486H76.6937V9.73113H81.7098C82.3758 9.73113 82.9142 9.77364 83.3252 9.85866C83.7502 9.92951 84.0832 10.0499 84.3241 10.22C84.5792 10.3759 84.7492 10.5813 84.8342 10.8364C84.9334 11.0773 84.9972 11.3748 85.0255 11.7291L85.1105 13.1744C85.153 13.812 85.2593 14.3505 85.4294 14.7897C85.5994 15.229 85.8686 15.4486 86.237 15.4486H88.6388ZM85.2381 5.69276C85.2381 6.25955 85.0043 6.74841 84.5367 7.15933C84.0691 7.55608 83.3464 7.75446 82.3687 7.75446H76.6937V3.50354H82.1349C82.7017 3.50354 83.1835 3.56022 83.5802 3.67358C83.977 3.78694 84.2958 3.94281 84.5367 4.14118C84.7775 4.32539 84.9547 4.53793 85.068 4.77882C85.1814 5.0197 85.2381 5.26767 85.2381 5.52273V5.69276ZM105.368 15.4486V13.2381H95.1661V9.28478H103.009V7.13807H95.1661V3.50354H105.368V1.29307H92.5093V15.4486H105.368ZM124.535 1.29307H121.389L116.267 7.86073L110.804 1.29307H107.659L114.8 9.75239V15.4486H117.457V9.79489L124.535 1.29307ZM141.575 15.4486L133.796 1.29307H131.586L123.934 15.4486H126.74L128.546 11.9416H136.857L138.727 15.4486H141.575ZM135.815 10.0074H129.545L132.627 4.05616L135.815 10.0074ZM168.536 15.4486L160.757 1.29307H158.547L150.895 15.4486H153.701L155.507 11.9416H163.818L165.688 15.4486H168.536ZM162.776 10.0074H156.506L159.588 4.05616L162.776 10.0074ZM185.719 11.474C185.719 10.808 185.549 10.2483 185.209 9.79489C184.869 9.34146 184.415 8.96597 183.848 8.6684C183.296 8.35667 182.665 8.1087 181.957 7.92449C181.248 7.72612 180.519 7.56317 179.768 7.43564C179.031 7.29394 178.308 7.16641 177.6 7.05306C176.891 6.9397 176.253 6.80509 175.687 6.64922C175.134 6.47918 174.688 6.27372 174.348 6.03284C174.008 5.79195 173.838 5.48022 173.838 5.09764C173.838 4.80007 173.944 4.52376 174.156 4.26871C174.383 3.99948 174.695 3.77277 175.092 3.58856C175.502 3.39019 175.984 3.23432 176.537 3.12096C177.104 3.0076 177.734 2.95093 178.429 2.95093C178.953 2.95093 179.477 3.00052 180.001 3.09971C180.54 3.18473 181.05 3.30517 181.532 3.46103C182.028 3.60273 182.488 3.77277 182.913 3.97114C183.338 4.16952 183.714 4.37498 184.04 4.58753L185.485 2.80214C185.088 2.54709 184.628 2.29912 184.103 2.05823C183.593 1.80318 183.041 1.58355 182.446 1.39934C181.851 1.21514 181.22 1.06635 180.554 0.952996C179.888 0.839638 179.208 0.782959 178.514 0.782959C177.394 0.782959 176.381 0.903402 175.474 1.14429C174.567 1.38517 173.795 1.71108 173.157 2.122C172.52 2.53292 172.031 3.02886 171.691 3.60982C171.351 4.1766 171.181 4.7859 171.181 5.43771C171.181 6.08952 171.351 6.63505 171.691 7.07431C172.031 7.4994 172.477 7.85364 173.03 8.13704C173.582 8.42043 174.213 8.64715 174.922 8.81718C175.644 8.98722 176.374 9.136 177.111 9.26353C177.848 9.39106 178.57 9.51859 179.279 9.64611C180.001 9.75947 180.639 9.90117 181.192 10.0712C181.744 10.2412 182.191 10.4609 182.531 10.7301C182.871 10.9852 183.041 11.3252 183.041 11.7503C183.041 12.0195 182.949 12.2817 182.764 12.5367C182.594 12.7918 182.325 13.0185 181.957 13.2169C181.603 13.4011 181.149 13.5499 180.596 13.6632C180.044 13.7766 179.385 13.8333 178.62 13.8333C177.472 13.8333 176.317 13.6774 175.155 13.3657C174.008 13.0539 172.874 12.6218 171.755 12.0691L170.777 14.1733C171.882 14.6976 173.079 15.1298 174.369 15.4699C175.673 15.8241 177.047 16.0012 178.492 16.0012C179.541 16.0012 180.504 15.895 181.383 15.6824C182.276 15.4699 183.041 15.1723 183.678 14.7897C184.316 14.393 184.812 13.9183 185.166 13.3657C185.535 12.7989 185.719 12.1683 185.719 11.474ZM203.676 3.50354V1.29307H188.649V3.50354H194.834V15.4486H197.491V3.50354H203.676ZM221.4 15.4486L213.621 1.29307H211.411L203.759 15.4486H206.565L208.371 11.9416H216.682L218.552 15.4486H221.4ZM215.64 10.0074H209.37L212.452 4.05616L215.64 10.0074ZM239.603 15.4486V1.29307H236.946V11.7716L236.032 10.7513L227.105 1.29307H224.555V15.4486H227.212V4.97011L228.104 5.96907L237.308 15.4486H239.603ZM260.421 15.4486L252.641 1.29307H250.431L242.779 15.4486H245.585L247.392 11.9416H255.702L257.573 15.4486H260.421ZM254.661 10.0074H248.391L251.472 4.05616L254.661 10.0074Z" fill="white"/>
  </g>
</svg>
