<svg width="37" height="38" viewBox="0 0 37 38" fill="none" xmlns="http://www.w3.org/2000/svg">
<g clip-path="url(#clip0)">
<path d="M31.4523 5.87899C29.7561 4.16699 27.736 2.80971 25.5099 1.88624C23.2838 0.962766 20.8962 0.491573 18.4861 0.500114C8.38744 0.500114 0.15725 8.72799 0.148 18.829C0.148 22.0642 0.994376 25.2115 2.59232 27.9981L0 37.5001L9.72176 34.9517C12.4112 36.4154 15.4242 37.1825 18.4861 37.1833H18.4954C28.5964 37.1833 36.8243 28.9554 36.8335 18.8452C36.8358 16.4357 36.3614 14.0495 35.4374 11.8241C34.5135 9.59881 33.1583 7.57829 31.45 5.87899H31.4523ZM18.4861 34.0799C15.7551 34.0808 13.0742 33.3459 10.7254 31.9524L10.1704 31.6194L4.403 33.1318L5.94313 27.5055L5.58238 26.9251C4.05568 24.4977 3.24825 21.6873 3.25369 18.8197C3.25369 10.4346 10.0918 3.59424 18.4954 3.59424C20.4974 3.59065 22.4804 3.98337 24.3299 4.74978C26.1794 5.51618 27.8589 6.6411 29.2717 8.05968C30.6893 9.47273 31.8131 11.1525 32.5784 13.002C33.3436 14.8516 33.735 16.8343 33.7302 18.8359C33.7209 27.2511 26.8828 34.0799 18.4861 34.0799V34.0799ZM26.8458 22.6701C26.3903 22.4411 24.1402 21.3334 23.717 21.1762C23.2961 21.0259 22.9886 20.9472 22.688 21.4051C22.3804 21.8607 21.5016 22.899 21.238 23.1973C20.9744 23.5049 20.7015 23.5396 20.2436 23.3129C19.7881 23.0817 18.3104 22.6007 16.5621 21.0351C15.1978 19.8211 14.2843 18.3179 14.0115 17.8624C13.7478 17.4045 13.986 17.1594 14.215 16.9304C14.4161 16.7269 14.6705 16.3939 14.8995 16.1303C15.1307 15.8667 15.207 15.6724 15.3573 15.3672C15.5076 15.0573 15.436 14.7937 15.3226 14.5647C15.207 14.3358 14.2936 12.0765 13.9074 11.1654C13.5374 10.2658 13.1604 10.3907 12.8783 10.3791C12.6147 10.3629 12.3071 10.3629 11.9996 10.3629C11.7673 10.3687 11.5388 10.4224 11.3282 10.5207C11.1177 10.619 10.9298 10.7597 10.7763 10.9341C10.3554 11.392 9.17832 12.4997 9.17832 14.759C9.17832 17.0183 10.8202 19.1897 11.0514 19.4973C11.2781 19.8049 14.2751 24.4276 18.8746 26.4163C19.9615 26.8904 20.8171 27.1702 21.4855 27.3829C22.5839 27.7344 23.576 27.6812 24.3668 27.5679C25.2456 27.4338 27.0748 26.4579 27.461 25.3872C27.8402 24.3142 27.8402 23.3985 27.7246 23.2066C27.6113 23.0123 27.3037 22.899 26.8458 22.6701V22.6701Z" fill="#9E9E9E"/>
</g>
<defs>
<clipPath id="clip0">
<rect width="37" height="37" fill="white" transform="translate(0 0.5)"/>
</clipPath>
</defs>
</svg>
